<?xml version="1.0" encoding="UTF-8"?>
<svg xmlns="http://www.w3.org/2000/svg" width="2000" height="2000">
  <path fill="#fff" fill-rule="evenodd" d="M2000 1001.901c0-549.135-445.162-994.296-994.297-994.296-549.134 0-994.296 445.161-994.296 994.296s445.162 994.297 994.296 994.297c549.135 0 994.297-445.162 994.297-994.297Z"></path>
  <path fill="#251756" fill-rule="evenodd" d="m472.896 1631.509-66.056 72.031-33.897-31.085c-3.43-3.146-6.28-6.316-8.55-9.512-2.27-3.196-3.78-6.408-4.534-9.637-.753-3.23-.636-6.496.351-9.8.987-3.305 3.023-6.638 6.107-10.001 3.33-3.632 6.93-5.903 10.798-6.813 3.868-.91 8.125-.659 12.772.755-3.267-5.348-4.528-10.622-3.784-15.822.743-5.199 3.182-10.051 7.314-14.557 3.33-3.632 6.92-6.129 10.769-7.49 3.848-1.362 7.737-1.788 11.667-1.28 3.93.508 7.794 1.762 11.595 3.76 3.8 2 7.314 4.48 10.542 7.44l34.906 32.01Zm1116.406-47.243 26.375 27.43 67.216 18.164-17.366 16.697-43.232-11.98 10.375 43.573-17.267 16.603-15.597-68.556-25.995-27.036 15.491-14.895Zm-1187.014 92.441 15.45-16.847-16.04-14.71c-2.825-2.59-5.762-4.046-8.812-4.366-3.049-.32-5.961 1.033-8.737 4.06-1.542 1.68-2.504 3.337-2.885 4.968-.382 1.631-.346 3.212.108 4.743.454 1.53 1.229 3.014 2.324 4.452a31.33 31.33 0 0 0 3.762 4.1l14.83 13.6Zm25.35-27.642 18.133-19.773-16.949-15.543a28.678 28.678 0 0 0-4.855-3.617c-1.69-.992-3.397-1.629-5.12-1.91-1.724-.28-3.46-.108-5.21.517-1.749.624-3.487 1.878-5.214 3.761-3.392 3.7-4.77 7.295-4.135 10.788.635 3.492 2.668 6.811 6.098 9.957l17.251 15.82Zm1200.808-105.431 9.955 5.351c-1.372-6.09-1.337-11.556.104-16.397 1.44-4.84 3.668-9.093 6.682-12.758 4.753-5.78 10.032-10.152 15.837-13.117 5.805-2.964 11.774-4.583 17.907-4.857 6.132-.273 12.273.7 18.421 2.921 6.15 2.221 11.972 5.592 17.47 10.113 5.638 4.637 10.176 9.787 13.613 15.449 3.437 5.662 5.649 11.557 6.635 17.685.986 6.127.603 12.34-1.15 18.637-1.752 6.298-5.005 12.337-9.758 18.116-3.188 3.877-6.856 7.152-11.004 9.825-4.148 2.673-8.553 4.545-13.213 5.616-4.661 1.07-9.43 1.194-14.308.373s-9.64-2.788-14.288-5.901l13.042-15.859c5.04 2.491 9.777 3.197 14.21 2.116 4.433-1.08 8.302-3.63 11.606-7.647 3.072-3.735 4.957-7.5 5.657-11.297.7-3.796.5-7.504-.598-11.125-1.098-3.621-2.894-7.077-5.386-10.367-2.493-3.29-5.396-6.298-8.708-9.022a49.748 49.748 0 0 0-10.164-6.498c-3.604-1.723-7.271-2.76-11-3.11-3.73-.349-7.39.186-10.98 1.606-3.589 1.42-6.92 3.997-9.992 7.732-4.52 5.498-6.62 10.89-6.3 16.174.32 5.285 2.92 10.348 7.801 15.189l13.738-16.705 12.37 10.173-26.084 31.717-40.81-33.56 8.695-10.573Zm-1239.848 36.593 15.45-14.341-14.622-15.75-15.449 14.341 14.621 15.75Zm-35.454-72.563-78.398 58.358-26.318-35.356c-3.651-4.904-6.043-9.608-7.177-14.111-1.133-4.503-1.333-8.706-.598-12.61a27.08 27.08 0 0 1 4.501-10.687 36.963 36.963 0 0 1 8.23-8.43 37.17 37.17 0 0 1 10.382-5.424 26.988 26.988 0 0 1 11.585-1.286c3.95.416 7.919 1.813 11.907 4.19 3.988 2.379 7.808 6.02 11.459 10.924l13.486 18.117 28.109-20.923 12.832 17.238Zm-77.834 31.148 23.497-17.491-9.971-13.396a45.014 45.014 0 0 0-4.69-5.383c-1.655-1.612-3.42-2.8-5.298-3.564-1.877-.764-3.898-.995-6.061-.693-2.164.303-4.49 1.38-6.98 3.233-2.488 1.853-4.188 3.772-5.099 5.758-.91 1.986-1.269 3.988-1.075 6.005.193 2.018.825 4.05 1.894 6.098a44.993 44.993 0 0 0 3.811 6.037l9.972 13.396Zm1500.523-118.672c-6.023-3.793-12.224-6.404-18.604-7.833-6.38-1.43-12.593-1.622-18.643-.578-6.049 1.043-11.766 3.4-17.152 7.073-5.386 3.672-10.073 8.673-14.06 15.005-4.036 6.41-6.535 12.817-7.495 19.222-.96 6.405-.603 12.56 1.07 18.467 1.672 5.906 4.53 11.427 8.576 16.563 4.045 5.135 9.08 9.6 15.102 13.393 6.178 3.89 12.495 6.574 18.951 8.052 6.457 1.477 12.748 1.719 18.875.724 6.126-.995 11.89-3.296 17.29-6.905 5.4-3.61 10.118-8.619 14.154-15.028 3.988-6.332 6.454-12.732 7.4-19.2.946-6.468.544-12.68-1.206-18.634-1.75-5.955-4.686-11.524-8.808-16.709-4.123-5.184-9.273-9.721-15.45-13.612Zm-11.452 18.185c3.63 2.286 6.887 4.904 9.774 7.854 2.887 2.95 5.104 6.153 6.65 9.607 1.545 3.453 2.21 7.107 1.993 10.961-.216 3.854-1.613 7.827-4.19 11.92-2.577 4.093-5.557 7.069-8.94 8.93-3.382 1.86-6.964 2.839-10.746 2.937-3.783.098-7.628-.517-11.537-1.846-3.908-1.329-7.677-3.136-11.306-5.421a49.748 49.748 0 0 1-9.369-7.599c-2.771-2.877-4.91-6.03-6.417-9.46-1.507-3.43-2.152-7.071-1.936-10.925.216-3.854 1.613-7.828 4.19-11.92 2.578-4.093 5.557-7.07 8.94-8.93 3.382-1.86 6.945-2.851 10.689-2.974 3.744-.122 7.512.444 11.304 1.7a49.746 49.746 0 0 1 10.9 5.166ZM297.11 1466l17.668-11.498-11.723-18.012-17.667 11.499L297.11 1466Zm-22.955-77.354-87.872 42.785-19.295-39.628c-2.676-5.497-4.153-10.563-4.431-15.199-.278-4.635.307-8.802 1.754-12.5a27.079 27.079 0 0 1 6.407-9.667 36.96 36.96 0 0 1 9.652-6.755 37.172 37.172 0 0 1 11.209-3.402 26.991 26.991 0 0 1 11.622.888c3.804 1.142 7.445 3.252 10.922 6.329 3.478 3.077 6.554 7.364 9.231 12.861l9.887 20.307 31.506-15.34 9.408 19.321ZM191.89 1404.8l26.337-12.824-7.31-15.014a45.004 45.004 0 0 0-3.609-6.16c-1.327-1.892-2.842-3.387-4.544-4.487-1.703-1.099-3.645-1.701-5.828-1.806-2.182-.104-4.668.523-7.457 1.88-2.79 1.36-4.817 2.93-6.08 4.712-1.264 1.782-1.988 3.683-2.172 5.701-.185 2.018.058 4.133.729 6.344a45.005 45.005 0 0 0 2.623 6.64l7.311 15.014Zm1576.26-79.936 88.054 42.41-9.325 19.361-71.775-34.569-20.67 42.917-16.279-7.84 29.996-62.28Zm63.996-91.492c6.538-.042 13.167 1.107 19.889 3.449 6.894 2.401 12.932 5.664 18.115 9.789 5.183 4.124 9.296 8.89 12.34 14.3 3.044 5.408 4.833 11.37 5.366 17.885.533 6.516-.431 13.306-2.893 20.373-2.491 7.152-5.962 13.094-10.412 17.825-4.45 4.731-9.549 8.27-15.295 10.617-5.746 2.347-11.93 3.526-18.554 3.538-6.623.013-13.382-1.182-20.276-3.584-6.722-2.341-12.63-5.559-17.727-9.653-5.097-4.095-9.124-8.831-12.082-14.21-2.958-5.38-4.69-11.297-5.194-17.754-.505-6.457.488-13.262 2.98-20.415 2.461-7.066 5.903-12.994 10.325-17.783 4.422-4.789 9.463-8.372 15.123-10.749 5.66-2.377 11.758-3.586 18.295-3.628Zm-1641.784 92.687c6.726-2.33 12.641-5.536 17.745-9.621 5.104-4.085 9.14-8.814 12.108-14.188 2.968-5.373 4.703-11.31 5.205-17.808.502-6.5-.471-13.285-2.92-20.356-2.478-7.157-5.916-13.112-10.314-17.867-4.398-4.754-9.425-8.325-15.08-10.712-5.656-2.388-11.752-3.609-18.29-3.663-6.536-.054-13.168 1.083-19.894 3.412-6.899 2.389-12.943 5.64-18.133 9.755-5.19 4.115-9.313 8.874-12.367 14.277-3.054 5.404-4.862 11.34-5.422 17.812-.56 6.47.4 13.285 2.878 20.442 2.448 7.07 5.9 12.998 10.357 17.78 4.456 4.782 9.555 8.352 15.297 10.71 5.741 2.358 11.923 3.549 18.547 3.573 6.623.024 13.384-1.158 20.283-3.546Zm1665.894-63.489c-3.477-2.226-7.24-4.044-11.29-5.455a49.746 49.746 0 0 0-11.784-2.582c-3.977-.371-7.777-.076-11.397.885-3.62.962-6.87 2.73-9.746 5.302-2.878 2.573-5.112 6.144-6.703 10.711-1.59 4.568-2.058 8.753-1.402 12.557.656 3.804 2.103 7.207 4.343 10.21 2.24 3.002 5.033 5.594 8.38 7.775a49.75 49.75 0 0 0 10.838 5.297c4.05 1.41 8.13 2.324 12.236 2.74 4.107.416 7.992.15 11.656-.796 3.663-.946 6.934-2.706 9.81-5.28 2.878-2.572 5.112-6.142 6.703-10.71 1.591-4.567 2.059-8.753 1.403-12.557-.656-3.804-2.126-7.214-4.408-10.232-2.283-3.018-5.162-5.64-8.639-7.865ZM183.331 1305.75c-4.052 1.403-8.133 2.31-12.24 2.717-4.108.409-7.993.136-11.655-.817-3.661-.953-6.928-2.72-9.8-5.298-2.873-2.578-5.1-6.153-6.683-10.723-1.583-4.57-2.043-8.757-1.38-12.56.664-3.802 2.14-7.21 4.428-10.224 2.288-3.013 5.172-5.63 8.653-7.848 3.48-2.22 7.247-4.03 11.3-5.434a49.75 49.75 0 0 1 11.789-2.56c3.978-.364 7.776-.062 11.395.906 3.619.968 6.864 2.742 9.737 5.32 2.872 2.579 5.1 6.153 6.682 10.724 1.583 4.57 2.042 8.756 1.38 12.559-.664 3.803-2.118 7.203-4.363 10.202-2.245 2.998-5.043 5.585-8.395 7.759a49.757 49.757 0 0 1-10.848 5.277Zm1739.238-159.648-95.605-20.29-4.177 19.684 64.004 13.583-.057.268-72.443 26.185-4.462 21.022 95.605 20.29 4.177-19.684-64.138-13.611.057-.268 72.606-26.29 4.433-20.889Zm-1721.383 58.965-95.642 20.112-8.676-41.257c-1.296-6.162-1.52-12.107-.673-17.833.848-5.727 2.828-10.945 5.94-15.656 3.112-4.711 7.386-8.78 12.82-12.207 5.433-3.428 12.124-5.977 20.072-7.648 6.966-1.465 13.583-1.924 19.853-1.377 6.269.546 11.927 2.177 16.974 4.893 5.047 2.715 9.367 6.516 12.959 11.402 3.591 4.887 6.157 10.991 7.697 18.314l8.676 41.257Zm-82.383-4.637 60.279-12.675-3.944-18.754a27.6 27.6 0 0 0-3.332-8.53c-1.584-2.652-3.748-4.854-6.495-6.608-2.747-1.753-6.092-2.915-10.035-3.485-3.943-.57-8.549-.3-13.817.808-4.823 1.014-9.078 2.398-12.765 4.153-3.688 1.754-6.69 3.994-9.008 6.72-2.317 2.725-3.842 6.006-4.574 9.843-.732 3.838-.553 8.346.536 13.525l3.155 15.003Zm1815.478-167.137-97.365-8.483-1.865 21.41 42 3.659-3.433 39.41-42-3.66-1.866 21.41 97.365 8.482 1.865-21.41-37.364-3.255 3.434-39.41 37.364 3.256 1.865-21.409ZM84.068 1113.818l97.38-8.304-3.582-42.008c-.636-7.455-2.438-13.827-5.408-19.115-2.97-5.288-6.793-9.587-11.472-12.897-4.678-3.31-10.096-5.619-16.252-6.925-6.156-1.307-12.78-1.658-19.872-1.053-8.092.69-15.044 2.404-20.855 5.144s-10.548 6.257-14.212 10.553c-3.663 4.297-6.264 9.235-7.803 14.816-1.54 5.58-2.041 11.508-1.506 17.782l3.582 42.007Zm77.551-28.182-61.374 5.234-1.303-15.276c-.45-5.273-.077-9.77 1.117-13.49 1.194-3.719 3.107-6.79 5.74-9.212 2.632-2.423 5.885-4.28 9.76-5.572 3.873-1.292 8.265-2.147 13.175-2.566 5.364-.458 9.969-.163 13.813.883 3.844 1.046 7.022 2.606 9.535 4.682 2.512 2.075 4.393 4.525 5.64 7.35a27.602 27.602 0 0 1 2.269 8.873l1.628 19.094Zm12.22-71.07-96.553-39.941.677-22.028 98.81-33.53-.686 22.302-21.98 6.72-1.123 36.53 21.52 8.33-.665 21.617Zm1727.835-28.272.696 20.794c5.633-.827 10.597-2.545 14.893-5.154 4.295-2.61 7.862-5.856 10.7-9.74 2.837-3.884 4.95-8.246 6.341-13.086 1.39-4.84 1.996-9.95 1.816-15.332-.25-7.478-1.798-14.16-4.642-20.046-2.845-5.885-6.662-10.802-11.45-14.75-4.789-3.95-10.344-6.914-16.664-8.894-6.321-1.98-13.13-2.847-20.426-2.604-7.114.238-13.712 1.555-19.795 3.95-6.083 2.394-11.336 5.72-15.76 9.977-4.422 4.256-7.833 9.415-10.233 15.476-2.4 6.06-3.474 12.83-3.224 20.309.201 6.02 1.298 11.507 3.29 16.462 1.991 4.955 4.783 9.244 8.373 12.868 3.591 3.623 7.887 6.493 12.889 8.608 5 2.116 10.566 3.345 16.695 3.688l-.695-20.795c-6.595-.601-11.96-2.681-16.096-6.241-4.137-3.56-6.315-8.623-6.534-15.19-.162-4.833.635-8.969 2.392-12.406 1.757-3.437 4.15-6.256 7.182-8.457 3.03-2.202 6.468-3.846 10.312-4.933a49.75 49.75 0 0 1 11.922-1.837c4.287-.143 8.453.197 12.498 1.02 4.045.824 7.676 2.232 10.892 4.224 3.217 1.992 5.817 4.645 7.8 7.957 1.982 3.312 3.054 7.385 3.215 12.218a22.34 22.34 0 0 1-1.045 7.637c-.786 2.445-1.922 4.652-3.408 6.619a21.603 21.603 0 0 1-5.244 4.969c-2.01 1.345-4.24 2.242-6.69 2.689Zm-1799.98-21.601 35.455 13.825.778-25.312-36.225 11.213-.008.274ZM81.27 896.349l96.695 14.212 3.125-21.262-37.784-5.554 3.125-21.262c.783-5.327 2.52-8.991 5.213-10.993 2.692-2.003 6.62-2.994 11.782-2.973 3.961.029 8.084.22 12.367.573 4.283.352 8.046.168 11.288-.555l3.125-21.262c-1.5.794-3.257 1.297-5.271 1.508-2.015.211-4.122.27-6.322.178-2.2-.093-4.344-.247-6.434-.462-2.09-.215-3.91-.39-5.457-.525a58.73 58.73 0 0 0-7.463-.06c-2.51.14-4.86.6-7.052 1.386a18.596 18.596 0 0 0-5.898 3.422c-1.742 1.496-3.166 3.5-4.274 6.013l-.27-.04c-1.371-5.736-3.957-10.105-7.759-13.108-3.801-3.003-8.546-4.922-14.234-5.758-3.701-.544-7.251-.397-10.649.44a25.255 25.255 0 0 0-9.3 4.445c-2.802 2.124-5.159 4.822-7.07 8.092-1.91 3.27-3.183 7.072-3.82 11.406l-7.663 52.14ZM1919.032 821.1l-96.677 14.336 10.882 73.387 17.873-2.65-7.73-52.13 23.696-3.513 6.946 46.849 16.52-2.45-6.947-46.849 20.716-3.071 7.57 51.046 17.872-2.65-10.721-72.305ZM128.138 881.516l-27.22-4 3.423-23.294c.716-4.875 2.314-8.376 4.794-10.502 2.48-2.126 6.068-2.844 10.763-2.154 4.875.717 8.217 2.453 10.026 5.21 1.808 2.756 2.354 6.571 1.638 11.447l-3.424 23.293Zm1756.774-126.204-77.16 19.82 5.347 20.815 77.16-19.82 7.288 28.371 17.5-4.495-19.923-77.558-17.5 4.495 7.288 28.372ZM203.38 776.158l-94.03-26.654 5.861-20.676 94.03 26.654-5.861 20.676Zm-80.84-73.681 91.391 34.633 7.13-18.816-61.183-23.186.097-.256 75.59-14.83 7.615-20.096-91.391-34.633-7.13 18.816 61.311 23.234-.097.256-75.767 14.91-7.566 19.968ZM1785.08 677.13l-5.802 11.127 9.388 21.889 13.437-27.36a42.436 42.436 0 0 0 12.977 1.435 50.746 50.746 0 0 0 12.886-2.25l-6.636-15.473c-1.953.54-3.939.945-5.958 1.215-2.019.27-4.065.303-6.138.1l9.252-17.67c4.374 3.485 9.021 5.986 13.94 7.5 4.92 1.515 10.02 1.139 15.304-1.127 3.523-1.511 6.347-3.492 8.473-5.943 2.127-2.45 3.615-5.174 4.465-8.17.85-2.996 1.097-6.18.743-9.553-.354-3.373-1.269-6.779-2.743-10.217a29.1 29.1 0 0 0-5.197-8.123c-2.17-2.396-4.623-4.297-7.362-5.704a22.393 22.393 0 0 0-8.717-2.443c-3.074-.22-6.162.335-9.265 1.665-3.942 1.69-7.03 3.983-9.264 6.878-2.234 2.894-4.297 6.187-6.19 9.878a62.076 62.076 0 0 0-7.64-5.66 38.498 38.498 0 0 0-8.502-4.024 27.658 27.658 0 0 0-9.086-1.39c-3.11.042-6.257.747-9.444 2.114-4.278 1.834-7.749 4.217-10.414 7.147-2.665 2.93-4.594 6.19-5.785 9.78-1.191 3.588-1.61 7.417-1.255 11.484.354 4.068 1.395 8.115 3.121 12.14 2.194 5.117 5.044 9.33 8.55 12.643 3.506 3.312 7.793 6.016 12.862 8.112Zm20.067-37.948-12.162 23.387c-3.248-1.09-6.118-2.515-8.61-4.275-2.493-1.761-4.423-4.235-5.79-7.422a13.897 13.897 0 0 1-1.134-5.248c-.036-1.821.218-3.544.763-5.167a13.132 13.132 0 0 1 2.56-4.45 11.3 11.3 0 0 1 4.133-3.038c1.845-.792 3.675-1.154 5.49-1.089 1.816.065 3.604.415 5.366 1.05a20.768 20.768 0 0 1 4.997 2.623 37.94 37.94 0 0 1 4.387 3.63Zm36.9 1.303c-3.271 1.403-6.216 1.598-8.834.586-2.619-1.012-5.264-2.434-7.937-4.266a271.955 271.955 0 0 1 4.114-7.425c1.366-2.372 3.474-4.17 6.326-5.393 2.348-1.007 4.598-1.029 6.749-.065 2.15.964 3.694 2.536 4.63 4.717.934 2.18.914 4.448-.062 6.803-.976 2.355-2.638 4.036-4.986 5.043Zm-1622.45-7.16 9.56-18.48c2.917 1.51 5.662 2.261 8.233 2.255 2.572-.005 4.936-.554 7.094-1.647 2.158-1.093 4.148-2.657 5.972-4.693a32.669 32.669 0 0 0 4.685-6.824c.88-1.702 1.682-3.599 2.405-5.69a21.433 21.433 0 0 0 1.188-6.321c.07-2.121-.31-4.116-1.142-5.985-.832-1.868-2.341-3.368-4.53-4.5-2.35-1.216-4.643-1.452-6.878-.707-2.234.745-4.467 2.082-6.697 4.01-2.23 1.929-4.507 4.244-6.83 6.947a257.308 257.308 0 0 1-7.274 8.104 93.596 93.596 0 0 1-7.884 7.942c-2.768 2.472-5.713 4.442-8.836 5.91-3.122 1.467-6.468 2.227-10.04 2.28-3.572.053-7.344-.948-11.316-3.002-4.458-2.306-7.835-5.26-10.133-8.863a29.145 29.145 0 0 1-4.339-11.722c-.595-4.212-.413-8.536.545-12.972.96-4.435 2.445-8.598 4.457-12.489 2.348-4.539 5.108-8.633 8.28-12.284 3.173-3.65 6.732-6.509 10.679-8.577 3.946-2.069 8.175-3.143 12.686-3.224 4.511-.081 9.28 1.178 14.305 3.778l-9.56 18.48c-2.677-1.18-5.108-1.744-7.292-1.692-2.184.052-4.161.596-5.93 1.633-1.77 1.037-3.37 2.443-4.803 4.22-1.432 1.776-2.756 3.839-3.972 6.19a25.186 25.186 0 0 0-1.904 4.871c-.472 1.708-.628 3.4-.467 5.075.16 1.676.639 3.233 1.436 4.673.796 1.44 2.126 2.641 3.99 3.605 1.703.88 3.248 1.27 4.638 1.166 1.389-.104 3.022-.877 4.898-2.32 1.877-1.444 4.131-3.617 6.763-6.52 2.631-2.902 6.04-6.712 10.228-11.43 1.162-1.454 2.913-3.399 5.253-5.836 2.34-2.437 5.175-4.592 8.506-6.465 3.332-1.872 7.093-3.035 11.282-3.488 4.19-.452 8.716.579 13.58 3.095 3.971 2.054 7.26 4.731 9.869 8.032 2.607 3.301 4.361 7.11 5.261 11.43.9 4.317.875 9.082-.074 14.293-.949 5.211-2.953 10.776-6.014 16.692-2.474 4.783-5.461 9.119-8.964 13.01-3.502 3.89-7.4 6.908-11.695 9.053-4.294 2.145-8.91 3.224-13.85 3.238-4.938.014-10.061-1.403-15.369-4.251Zm1553.208-131.176-67.574 42.193 11.382 18.23 67.574-42.194 15.515 24.847 15.326-9.57-42.411-67.923-15.326 9.57 15.514 24.847Zm-1534.451.385 66.582 43.742 11.8-17.962-66.583-43.741 16.084-24.483-15.101-9.92-43.967 66.926 15.101 9.92 16.084-24.482Zm1470.352-117.683-76.652 60.633 12.483 15.781 51.316-40.592.17.215-26.094 72.477 13.332 16.854 76.652-60.633-12.483-15.781-51.423 40.677-.17-.215 26.117-72.669-13.248-16.747ZM340.229 495.303l-77.468-59.587 13.102-17.034 77.468 59.587-13.102 17.034ZM319.84 393.97l59.369 53.122 14.33-16.015-59.37-53.122 19.534-21.83-13.465-12.048-53.396 59.675 13.465 12.048 19.533-21.83Zm1250.106-11.904 69.272-68.944 51.563 51.808-12.807 12.746-36.403-36.576-14.844 14.773 33.41 33.57-11.837 11.78-33.41-33.57-16.978 16.899 37.176 37.352-12.807 12.746-52.335-52.584ZM417.629 273.06l40.538 45.28c8.825 9.86 12.63 19.65 11.414 29.374-1.216 9.723-6.685 18.937-16.408 27.641-9.858 8.826-19.62 13.279-29.286 13.358-9.666.08-18.942-4.843-27.83-14.77l-40.537-45.281 16.012-14.334 40.537 45.28a44.29 44.29 0 0 0 5.715 5.357c2.044 1.6 4.264 2.643 6.66 3.131 2.397.488 4.975.324 7.734-.493 2.76-.817 5.771-2.686 9.035-5.608 5.711-5.113 8.513-9.918 8.406-14.415-.107-4.498-2.595-9.466-7.464-14.905l-40.538-45.281 16.012-14.334Zm1115.659-46.181-59.953 77.185 15.892 12.344 42.067-54.16.216.168-23.15 68.854 13.081 10.16 61.406-40.006.216.168-42.487 54.7 15.89 12.343 59.953-77.185-23.89-18.557-58.309 39.812-.216-.168 23.175-67.101-23.891-18.557ZM468.986 257.27l46.244 64.869 17.5-12.475-46.245-64.87 23.853-17.003-10.489-14.713-65.203 46.483 10.488 14.712 23.852-17.004Zm927.859 1.613 49.622-84.2 62.973 37.113-9.174 15.566-44.459-26.201-10.633 18.043 40.803 24.046-8.48 14.387-40.802-24.046-12.162 20.637 45.402 26.757-9.174 15.566-63.916-37.668Zm-878.8-57.092 48.196 85.024 64.542-36.586-8.91-15.718-45.847 25.987-11.812-20.839 41.202-23.355-8.235-14.528-41.202 23.355-10.328-18.22 44.894-25.447-8.91-15.719-63.59 36.046Zm853.47 32.079-2.48 11.026 12.519 5.535 21.364-48.325-37.558-16.604-6.476 14.647 19.78 8.745c-3.35 6.002-7.529 9.867-12.533 11.595-5.005 1.729-10.762 1.154-17.272-1.724-4.424-1.956-7.802-4.471-10.133-7.548-2.332-3.076-3.83-6.457-4.495-10.144-.665-3.686-.652-7.496.04-11.43a49.756 49.756 0 0 1 3.528-11.537c1.734-3.922 3.851-7.526 6.351-10.811s5.346-5.943 8.539-7.973c3.193-2.031 6.711-3.22 10.556-3.565 3.844-.346 7.978.459 12.402 2.415 4.757 2.103 8.251 5.144 10.483 9.124 2.232 3.98 2.825 8.732 1.78 14.256l18.778 8.302c1.75-5.312 2.366-10.428 1.846-15.347-.519-4.92-1.92-9.48-4.203-13.682-2.283-4.202-5.27-7.941-8.959-11.219-3.69-3.277-7.829-5.93-12.42-7.96-6.843-3.026-13.534-4.537-20.07-4.533-6.537.003-12.625 1.303-18.262 3.9-5.638 2.595-10.722 6.31-15.253 11.141-4.53 4.832-8.271 10.586-11.223 17.263-2.878 6.51-4.561 13.025-5.049 19.544-.487 6.52.224 12.695 2.135 18.53 1.911 5.833 5.074 11.147 9.49 15.943 4.415 4.795 10.044 8.706 16.888 11.731 4.34 1.92 9.035 2.922 14.085 3.01 5.05.087 10.324-1.348 15.822-4.305Zm-713.752-50.157c2.451 6.683 5.766 12.538 9.944 17.566 4.177 5.029 8.98 8.978 14.406 11.847 5.427 2.87 11.394 4.495 17.901 4.878s13.273-.714 20.298-3.291c7.111-2.609 13.003-6.156 17.676-10.64 4.673-4.485 8.151-9.576 10.435-15.274 2.284-5.698 3.393-11.815 3.327-18.352-.065-6.538-1.324-13.147-3.775-19.83-2.515-6.853-5.876-12.837-10.085-17.951-4.21-5.115-9.043-9.15-14.501-12.104-5.458-2.955-11.427-4.653-17.907-5.095-6.48-.441-13.276.642-20.387 3.251-7.025 2.577-12.887 6.137-17.587 10.68-4.7 4.544-8.177 9.707-10.429 15.49-2.252 5.784-3.33 11.987-3.233 18.61.097 6.623 1.402 13.361 3.917 20.215Zm545.355.53 63.896-82.675 21.077 6.438 6.403 104.147-21.339-6.518-.711-22.974-34.953-10.677-13.69 18.576-20.683-6.318Zm-525.18-7.932c-1.477-4.026-2.457-8.09-2.94-12.189-.484-4.1-.282-7.988.604-11.667.886-3.679 2.592-6.977 5.117-9.897 2.526-2.919 6.059-5.211 10.6-6.877 4.54-1.666 8.717-2.202 12.531-1.609 3.815.594 7.25 2.007 10.304 4.24 3.055 2.232 5.723 5.068 8.006 8.508 2.282 3.44 4.162 7.173 5.64 11.199a49.751 49.751 0 0 1 2.775 11.74c.436 3.97.203 7.774-.698 11.41-.902 3.635-2.616 6.913-5.141 9.832-2.526 2.92-6.059 5.212-10.6 6.877-4.54 1.666-8.717 2.202-12.532 1.61-3.814-.594-7.24-1.986-10.28-4.176-3.039-2.19-5.676-4.94-7.911-8.251a49.756 49.756 0 0 1-5.475-10.75Zm78.07-78.542 23.024 94.984 20.885-5.063-9.512-39.244 39.776-9.64-3.934-16.23-39.776 9.64-5.32-21.95 45.895-11.124-4.256-17.56-66.781 16.187Zm357.308 70.166 17.323-96.187 21.015 3.785 28.524 71.759.27.048 11.62-64.528 19.804 3.566-17.323 96.187-21.15-3.81-28.413-71.599-.27-.048-11.597 64.393-19.803-3.566ZM889.03 70.107l6.665 97.506 20.075-1.373-4.677-68.418.273-.018 28.576 66.784 16.524-1.13 19.175-70.734.273-.019 4.724 69.101 20.075-1.372-6.666-97.506-30.18 2.063-16.994 68.527-.273.02-27.39-65.495-30.18 2.064Zm163.283-4.686-42.842 95.302 21.587 1.317 8.977-21.257 36.48 2.226 6.052 22.174 22.27 1.359-30.527-99.779-21.997-1.342Zm217.873 62.306-22.65 30.58 24.218 7.398-1.306-37.898-.262-.08Zm-223.574-2.588 14.89-35.021.274.016 10.112 36.547-25.276-1.542ZM1013.137 1836.248l5.403 97.584 21.457-1.188-1.74-31.434 11.612-13.119 31.813 42.246 26.925-1.491-.352-.443 20.126-3.074 4.292-22.672 36.128-5.518 10.593 20.399 22.056-3.369-50.884-91.095-21.786 3.327L1107.3 1927.2l-43.783-55.081 35.998-40.653-26.788 1.483-35.892 42.566-2.24-40.455-21.457 1.188Zm-75.768 94.836 3.881-97.656 21.474.853-3.164 79.603 47.598 1.891-.718 18.054-69.07-2.745Zm-102.645-41.665c-1.31-6.405-1.469-13.132-.476-20.18 1.018-7.23 3.047-13.786 6.087-19.67 3.04-5.885 6.918-10.845 11.633-14.881 4.715-4.036 10.217-6.948 16.505-8.735 6.287-1.787 13.136-2.16 20.546-1.116 7.5 1.056 14.003 3.308 19.507 6.756 5.505 3.447 9.966 7.761 13.383 12.942 3.418 5.182 5.775 11.02 7.072 17.515 1.298 6.495 1.437 13.357.42 20.586-.993 7.049-3.003 13.47-6.03 19.264-3.028 5.794-6.893 10.664-11.596 14.61-4.702 3.946-10.171 6.792-16.408 8.54-6.236 1.75-13.104 2.095-20.604 1.04-7.41-1.044-13.893-3.27-19.45-6.679-5.556-3.408-10.049-7.658-13.479-12.749-3.43-5.09-5.8-10.838-7.11-17.243Zm-99.037 4.689 24.237-94.68 20.819 5.329-10.048 39.251 47.045-29.78 25.991 6.653-46.57 27.924 25.913 67.673-26.123-6.687-17.614-49.865-15.024 9.012-7.807 30.5-20.82-5.33Zm482.598 14.704-18.445-77.501-28.496 6.782-4.184-17.578 77.9-18.54 4.184 17.578-28.497 6.782 18.445 77.501-20.907 4.976Zm-359.597-48.71c-1.508 3.841-2.562 7.886-3.16 12.133a49.75 49.75 0 0 0-.246 12.06c.408 3.975 1.435 7.644 3.08 11.01 1.646 3.364 4.01 6.208 7.093 8.532 3.083 2.323 7.019 3.822 11.808 4.496 4.79.674 8.986.32 12.59-1.061 3.604-1.382 6.662-3.462 9.173-6.242 2.51-2.78 4.511-6.023 6-9.73a49.752 49.752 0 0 0 3.094-11.66c.598-4.247.702-8.425.313-12.535-.389-4.11-1.403-7.87-3.042-11.28-1.64-3.41-4-6.276-7.083-8.6-3.083-2.323-7.019-3.822-11.808-4.496-4.79-.674-8.986-.32-12.59 1.061-3.605 1.382-6.666 3.485-9.183 6.31-2.517 2.825-4.53 6.159-6.039 10.001Zm397.893 40.189 4.048-104.41 20.9-6.99 65.662 81.093-21.16 7.077-13.914-18.296-34.66 11.594-.365 23.071-20.51 6.86Zm-113.61-51.687-7.169 37.374 25.033-3.823-17.592-33.592-.271.041Zm135.425-33.263-.697 38.05 24.016-8.033-23.06-30.104-.259.087Z"></path>
  <path fill="#2b166f" fill-rule="evenodd" d="M1787.072 994.297c0-433.639-351.533-785.172-785.17-785.172-433.639 0-785.172 351.533-785.172 785.172 0 433.638 351.533 785.17 785.171 785.17 433.638 0 785.171-351.532 785.171-785.17Z"></path>
  <path fill="#fff" fill-rule="evenodd" d="M480.072 1582.009c-20.593-19.134-34.403-32.749-43.973-42.6l-17.402-17.909 79.902-.317c43.945-.174 109.601.075 145.901.554 37.953.501 66.68 1.273 67.599 1.817 1.426.844.941 4.012-4.51 29.446l-6.108 28.5-110.704.254-110.705.255ZM352.3 1437c-8.509-12.787-14.344-21.9-18.456-28.5-4.112-6.6-9.922-16.232-12.91-21.406-2.989-5.173-5.584-9.785-5.767-10.25-.184-.464 96.513-.844 214.881-.844 215.215 0 215.215 0 214.677 4.015-.296 2.209-3.137 15.934-6.313 30.5L732.638 1437H352.3Zm-76.136-139.996c-9.338-23.64-14.117-36.343-16.644-43.48-2.528-7.137-4.852-14-5.166-15.25-.57-2.274-.57-2.274 207.788-2.204 114.597.039 231.308.43 259.358.87 28.05.441 51.734 1.113 52.632 1.493 1.478.625 1.365 1.938-1.19 13.879-1.551 7.253-4.338 20.163-6.192 28.688l-3.371 15.5-243.608.252-243.607.252Zm-42.874-137c-2.506-12.016-3.894-19.122-4.701-23.545a961.082 961.082 0 0 1-2.975-17.5c-.83-5.202-1.815-11.822-2.19-14.709l-.682-5.25H806.64l-6.645 30.25-6.646 30.25-280.029.252-280.029.252ZM216 1015c0-40.084.286-53.809.636-56.36.636-4.64.636-4.64 310.44-4.64 170.394 0 310.018.343 310.277.762.259.419-.808 7.056-2.37 14.75a1800.143 1800.143 0 0 1-5.967 27.988c-1.72 7.7-3.54 14.417-4.047 14.927-.507.51-13.42 1.266-28.696 1.682-15.275.415-152.086.786-304.023.823L216 1015Zm20.315-201c427.943.162 570.035.5 591.853.855 21.817.355 39.885.87 40.15 1.145.266.275-1.492 9.5-3.907 20.5s-5.332 24.162-6.483 29.25l-2.092 9.25H540.304c-315.531 0-315.531 0-314.83-4.75.385-2.613 1.775-10.6 3.089-17.75s3.595-18.738 5.07-25.75l2.682-12.75Zm46.152-137.208c468.9.882 607.508 1.491 610.533 1.923 5.115.73 5.478.96 5.183 3.285-.174 1.375-2.78 13.746-5.791 27.491-3.011 13.746-5.887 25.405-6.392 25.909-.504.504-14.323 1.268-30.708 1.698-16.386.43-157.303.809-313.15.842-283.359.06-283.359.06-282.783-2.19.317-1.238 3.222-9.225 6.455-17.75 3.234-8.525 8.303-21.284 11.266-28.354l5.387-12.854Zm83.663-144.796c564.37.504 564.37.504 564.057 4.004-.172 1.925-2.778 14.746-5.791 28.491-3.014 13.746-5.896 25.409-6.405 25.918-.509.509-14.778 1.27-31.708 1.693-16.93.422-149.957.797-295.615.833-264.831.065-264.831.065-262.553-3.685 1.253-2.063 6.196-9.915 10.983-17.45 4.788-7.536 12.829-19.574 17.869-26.752l9.163-13.052ZM496.97 392h465.708l-6.618 29.75-6.618 29.75-257.807.252c-257.806.252-257.806.252-254.83-3.5 1.638-2.064 10.114-10.528 18.836-18.81 8.723-8.282 21.59-20.094 28.594-26.25L496.97 392Zm295.197-76.21c-185.093.286-186.642.272-183.667-1.653 1.65-1.067 9.3-5.379 17-9.58 7.7-4.202 20.975-11.055 29.5-15.229 8.525-4.174 21.575-10.288 29-13.586 7.425-3.298 20.798-8.862 29.719-12.364 8.92-3.503 18.16-6.888 20.535-7.523 3.207-.858 36.563-1.013 129.781-.601 69.006.304 126.185.844 127.065 1.2 1.405.566.813 4.144-4.855 29.345-3.55 15.786-6.67 28.926-6.933 29.201-.263.275-84.479.63-187.145.79Z"></path>
  <path fill="#251756" fill-rule="evenodd" d="m577.947 1711.027-21.478 38.88-43.614 8.411 30.34 32.441-5.477 44.079 40.229-18.83 40.228 18.83-5.477-44.079 30.34-32.44-43.614-8.412Zm882.129-7.605-21.477 38.88-43.614 8.412 30.34 32.44-5.478 44.08 40.229-18.831 40.229 18.83-5.478-44.079 30.34-32.44-43.614-8.412Z"></path>
  <path fill="#fff" fill-rule="evenodd" d="M1564.67 1199.175v-41.52h8.897c6.92 0 11.904 1.564 14.952 4.695 3.048 3.13 4.572 8.403 4.572 15.817 0 6.261-1.565 11.328-4.695 15.2-3.131 3.872-7.992 5.808-14.582 5.808Zm-45.97-74.639V1301h45.97v-70.684h12.11c2.8 0 5.148.37 7.043 1.112 1.895.741 3.46 2.06 4.696 3.954 1.236 1.895 2.1 4.49 2.595 7.785.494 3.296.741 7.415.741 12.358v11.863c0 1.812.042 4.16.124 7.044.083 2.883.247 5.89.494 9.02.247 3.131.66 6.262 1.236 9.392.577 3.13 1.442 5.85 2.595 8.156h48.936v-2.471c-1.483-.824-2.554-1.69-3.213-2.596a85.035 85.035 0 0 1-1.978-2.842c-.494-.988-.906-2.389-1.235-4.201-.33-1.813-.577-3.831-.742-6.055a95.482 95.482 0 0 1-.247-7.044V1253.548c0-11.864-2.06-21.173-6.179-27.928-4.119-6.756-11.698-10.628-22.737-11.616v-.494c10.545-1.648 18.206-6.097 22.985-13.346 4.778-7.25 7.167-16.807 7.167-28.67 0-6.755-.865-13.016-2.595-18.783-1.73-5.767-4.531-10.75-8.403-14.952-3.872-4.202-8.898-7.456-15.076-9.763-6.179-2.307-13.635-3.46-22.367-3.46Zm-79.83 36.084-12.604 74.886h25.704l-12.605-74.886Zm29.164-36.084L1511.038 1301h-48.935l-4.696-30.894h-36.578l-4.696 30.894h-48.194l42.263-176.464Zm-224.163 0V1301h66.73c13.346 0 23.726-2.43 31.14-7.29 7.415-4.861 12.976-11.37 16.683-19.526 3.707-8.156 5.973-17.547 6.796-28.174.824-10.628 1.236-21.708 1.236-33.242 0-11.534-.412-22.614-1.236-33.241-.823-10.628-3.089-20.02-6.796-28.175-3.707-8.156-9.268-14.664-16.683-19.525-7.414-4.86-17.794-7.29-31.14-7.29Zm45.97 143.346v-110.228h9.144c4.448 0 7.99.618 10.627 1.854 2.636 1.235 4.655 3.83 6.055 7.785 1.4 3.954 2.307 9.556 2.719 16.806.412 7.25.618 16.806.618 28.67 0 11.862-.206 21.418-.618 28.668-.412 7.25-1.318 12.852-2.719 16.806-1.4 3.955-3.419 6.55-6.055 7.786-2.636 1.235-6.179 1.853-10.627 1.853Zm-187.833-143.346V1301h66.73c13.346 0 23.726-2.43 31.14-7.29 7.415-4.861 12.976-11.37 16.683-19.526 3.707-8.156 5.973-17.547 6.796-28.174.824-10.628 1.236-21.708 1.236-33.242 0-11.534-.412-22.614-1.236-33.241-.823-10.628-3.089-20.02-6.796-28.175-3.707-8.156-9.268-14.664-16.683-19.525-7.414-4.86-17.794-7.29-31.14-7.29Zm45.97 143.346v-110.228h9.144c4.448 0 7.99.618 10.627 1.854 2.636 1.235 4.655 3.83 6.055 7.785 1.4 3.954 2.307 9.556 2.719 16.806.412 7.25.618 16.806.618 28.67 0 11.862-.206 21.418-.618 28.668-.412 7.25-1.318 12.852-2.719 16.806-1.4 3.955-3.419 6.55-6.055 7.786-2.636 1.235-6.179 1.853-10.627 1.853Zm-141.122-55.114c0-11.863.164-21.708.494-29.534.33-7.827 1.03-14.046 2.1-18.66 1.072-4.613 2.637-7.826 4.696-9.639 2.06-1.812 4.82-2.718 8.28-2.718 3.46 0 6.22.906 8.28 2.718 2.059 1.813 3.624 5.026 4.695 9.64 1.071 4.613 1.771 10.832 2.101 18.659.33 7.826.494 17.67.494 29.534 0 11.863-.165 21.708-.494 29.534-.33 7.827-1.03 14.047-2.1 18.66-1.072 4.613-2.637 7.826-4.697 9.639-2.06 1.812-4.819 2.718-8.28 2.718-3.46 0-6.22-.906-8.279-2.718-2.06-1.813-3.624-5.026-4.695-9.64-1.071-4.612-1.772-10.832-2.101-18.659-.33-7.826-.494-17.67-.494-29.534Zm-47.453 0c0 16.477 1.071 30.523 3.213 42.139 2.142 11.616 5.684 21.09 10.627 28.422 4.943 7.332 11.452 12.563 19.525 15.694 8.074 3.13 17.96 4.696 29.658 4.696s21.584-1.566 29.658-4.696c8.073-3.13 14.581-8.362 19.524-15.694 4.943-7.332 8.486-16.806 10.628-28.422 2.142-11.616 3.213-25.662 3.213-42.139 0-16.476-1.071-30.523-3.213-42.139-2.142-11.616-5.685-21.09-10.628-28.422-4.943-7.332-11.45-12.687-19.524-16.064-8.074-3.378-17.96-5.067-29.658-5.067-11.699 0-21.584 1.689-29.658 5.067-8.073 3.377-14.582 8.732-19.525 16.064-4.943 7.332-8.485 16.806-10.627 28.422-2.142 11.616-3.213 25.663-3.213 42.14Zm-83.289-12.11v-43.004h8.65c11.863 0 17.795 7.167 17.795 21.502 0 7.414-1.524 12.852-4.572 16.312-3.048 3.46-7.456 5.19-13.223 5.19Zm-45.97-76.122V1301h45.97v-67.224h16.065c18.948 0 33.324-4.573 43.127-13.717 9.804-9.145 14.705-22.861 14.705-41.15 0-7.744-.988-14.911-2.965-21.502-1.978-6.59-5.067-12.316-9.268-17.177-4.202-4.86-9.516-8.691-15.942-11.492-6.425-2.801-14.005-4.202-22.737-4.202ZM1394.825 863.934l93.998-140.228c-21.368.822-43.866 3.904-67.494 9.246-23.628 5.342-43.866 11.043-60.714 17.104s-31.898 11.814-45.15 17.26c-13.252 5.444-22.755 9.296-28.508 11.556-1.438 0-2.876-.513-4.315-1.54-1.438-1.028-2.157-2.26-2.157-3.699 0-1.644 4.777-11.711 14.331-30.203 9.554-18.492 20.803-38.318 33.747-59.481 71.912-25.683 135.4-38.524 190.463-38.524 63.694 0 107.868 13.56 132.523 40.681 8.835 9.452 15.667 21.112 20.495 34.98 4.828 13.869 7.242 27.583 7.242 41.144 0 30.82-6.42 58.813-19.262 83.982-12.841 25.17-31.178 47-55.012 65.491-23.834 18.492-51.879 32.617-84.137 42.377-32.257 9.76-67.596 14.639-106.018 14.639-6.78 0-20.649-1.233-41.606-3.698l-27.737 50.543c2.876 4.315 4.314 7.808 4.314 10.479 0 6.37-1.438 11.711-4.314 16.026-4.11 6.164-9.554 14.28-16.334 24.347-6.78 10.068-11.352 16.745-13.715 20.033-2.363 3.287-5.034 6.164-8.013 8.63-2.98 2.465-5.907 3.697-8.784 3.697-5.958 0-9.759-1.797-11.403-5.393-1.643-3.596-2.465-8.578-2.465-14.947 0-9.04 4.469-23.372 13.406-42.993 8.938-19.622 22.447-45.664 40.528-78.127-9.657-3.698-17.157-8.527-22.499-14.485-5.342-5.959-8.013-11.814-8.013-17.567 0-12.739 7.294-24.553 21.882-35.442 14.588-10.89 36.161-19.52 64.72-25.888Zm32.052 8.32-17.567 29.587c7.807.411 14.742.822 20.803 1.233 6.06.41 11.146.616 15.255.616 35.956 0 67.135-4.828 93.537-14.485 26.402-9.656 47.359-21.624 62.871-35.904 15.512-14.28 26.761-28.61 33.747-42.993 6.986-14.382 10.479-26.402 10.479-36.058 0-13.356-5.342-23.834-16.026-31.436-10.684-7.602-26.043-12.79-46.075-15.564-20.033-2.774-45.87-4.16-77.51-4.16.41 2.26.616 5.033.616 8.32 0 10.685-5.65 24.759-16.95 42.223l-53.626 84.137 40.373-4.623c3.287 0 4.93 1.54 4.93 4.623 0 2.67-2.67 4.52-8.012 5.547Z"></path>
  <path fill="#fff" fill-rule="evenodd" d="m1064.512 861.662-15.717 18.491c18.286 1.644 34.62 3.853 49.002 6.626 14.383 2.774 27.686 5.856 39.911 9.246 12.225 3.39 22.96 6.934 32.206 10.633 32.464 13.56 48.695 32.463 48.695 56.707 0 14.794-6.78 29.279-20.34 43.455-13.561 14.177-31.18 26.813-52.856 37.908-21.676 11.095-43.969 19.776-66.878 26.043-22.909 6.266-43.712 9.4-62.409 9.4-31.23 0-55.577-5.805-73.041-17.414-17.465-11.608-26.197-27.48-26.197-47.615 0-13.972 5.342-30.409 16.026-49.311 10.684-18.903 27.224-42.428 49.62-70.576-16.849-.822-28.765-3.339-35.751-7.551-6.986-4.212-10.479-10.119-10.479-17.721 0-4.726 1.336-8.321 4.007-10.787 2.67-2.465 6.266-4.263 10.787-5.393 4.52-1.13 13.2-2.517 26.042-4.16 12.841-1.644 29.33-3.7 49.465-6.165 22.395-27.532 42.479-48.232 60.251-62.1 17.773-13.87 36.83-21.83 57.17-23.885 1.644-.206 3.442-.309 5.394-.309 1.951 0 2.927.514 2.927 1.541 0 1.233-2.311 4.52-6.934 9.863-4.623 5.342-12.122 13.868-22.498 25.58a75226.462 75226.462 0 0 0-36.83 41.606c38.628-5.137 70.217-11.044 94.77-17.722 24.553-6.677 43.096-14.639 55.629-23.885 12.533-9.245 18.8-19.518 18.8-30.819 0-13.766-6.678-23.73-20.033-29.894-13.355-6.164-33.798-9.246-61.33-9.246-15.204 0-32.617 1.54-52.239 4.623-19.621 3.082-37.394 6.574-53.317 10.478-15.923 3.904-30.1 8.065-42.53 12.482-12.431 4.417-18.646 7.653-18.646 9.708 0 .616.616 1.233 1.849 1.85 10.067 3.698 15.101 6.78 15.101 9.245 0 3.287-15.41 9.605-46.229 18.954-30.82 9.348-51.57 14.023-62.255 14.023-7.602 0-11.403-3.801-11.403-11.404 0-9.04 8.27-25.323 24.81-48.848 16.54-23.526 31.59-38.575 45.15-45.15 4.726-2.26 15.718-5.856 32.977-10.787 17.259-4.931 36.212-9.657 56.861-14.177a886.307 886.307 0 0 1 63.026-11.403c21.368-3.082 40.27-4.623 56.707-4.623 38.833 0 68.008 6.934 87.527 20.803 19.519 13.869 29.278 31.282 29.278 52.239 0 14.177-4.469 27.84-13.406 40.99-8.938 13.149-22.858 25.58-41.76 37.29-18.903 11.712-43.507 21.985-73.813 30.82-30.305 8.835-66.004 15.615-107.097 20.34Zm-32.668 39.757a5511.29 5511.29 0 0 1-28.508 33.747c-8.321 9.76-14.28 17.67-17.875 23.73-3.596 6.062-5.393 12.174-5.393 18.338 0 9.862 5.085 18.646 15.255 26.35 10.17 7.705 24.81 11.558 43.918 11.558 17.67 0 36.52-3.134 56.553-9.4 20.033-6.267 36.88-14.434 50.544-24.502 13.663-10.067 20.495-20.237 20.495-30.51 0-8.835-5.034-16.13-15.102-21.882-10.068-5.753-25.374-10.838-45.92-15.256-20.547-4.417-45.202-8.475-73.967-12.173Z"></path>
</svg>
